<svg width="484" height="455" viewBox="0 0 484 455" fill="none" xmlns="http://www.w3.org/2000/svg">
<g clip-path="url(#clip0)">
<path d="M387.896 352.347C383.955 352.347 380.102 351.179 376.825 348.99C373.548 346.801 370.994 343.691 369.485 340.051C367.977 336.412 367.582 332.407 368.351 328.543C369.12 324.68 371.018 321.13 373.805 318.345C376.592 315.559 380.143 313.662 384.008 312.894C387.874 312.125 391.881 312.52 395.522 314.027C399.163 315.535 402.276 318.088 404.465 321.363C406.655 324.639 407.824 328.49 407.824 332.429C407.818 337.71 405.716 342.772 401.981 346.506C398.245 350.24 393.179 352.341 387.896 352.347Z" fill="#CCCCCC"/>
<path d="M397.094 331.663H388.663V322.087C388.663 321.884 388.582 321.689 388.438 321.545C388.294 321.402 388.099 321.321 387.896 321.321C387.693 321.321 387.498 321.402 387.354 321.545C387.21 321.689 387.13 321.884 387.13 322.087V331.663H378.699C378.495 331.663 378.301 331.744 378.157 331.887C378.013 332.031 377.932 332.226 377.932 332.429C377.932 332.632 378.013 332.827 378.157 332.971C378.301 333.114 378.495 333.195 378.699 333.195H387.13V342.771C387.13 342.974 387.21 343.169 387.354 343.313C387.498 343.456 387.693 343.537 387.896 343.537C388.099 343.537 388.294 343.456 388.438 343.313C388.582 343.169 388.663 342.974 388.663 342.771V333.195H397.094C397.297 333.195 397.492 333.114 397.635 332.971C397.779 332.827 397.86 332.632 397.86 332.429C397.86 332.226 397.779 332.031 397.635 331.887C397.492 331.744 397.297 331.663 397.094 331.663Z" fill="white"/>
<path d="M464.637 445.683L455.875 445.682L451.709 411.902L464.64 411.902L464.637 445.683Z" fill="#FFB8B8"/>
<path d="M449.616 443.18H466.515V453.814H438.977C438.977 452.418 439.252 451.035 439.787 449.744C440.321 448.454 441.105 447.282 442.093 446.294C443.081 445.307 444.254 444.524 445.545 443.989C446.836 443.455 448.219 443.18 449.616 443.18Z" fill="#2F2E41"/>
<path d="M429.764 445.683L421.002 445.682L416.835 411.902L429.767 411.902L429.764 445.683Z" fill="#FFB8B8"/>
<path d="M414.743 443.18H431.642V453.814H404.103C404.103 452.418 404.378 451.035 404.913 449.744C405.448 448.454 406.231 447.282 407.219 446.294C408.207 445.307 409.38 444.524 410.671 443.989C411.962 443.455 413.346 443.18 414.743 443.18Z" fill="#2F2E41"/>
<path d="M471.387 328.895C470.682 328.117 470.156 327.193 469.847 326.19C469.537 325.186 469.452 324.127 469.596 323.087C469.741 322.046 470.112 321.051 470.683 320.169C471.254 319.288 472.011 318.542 472.902 317.985L470.188 301.795L479.629 297.747L483.14 320.664C483.978 322.221 484.214 324.032 483.805 325.752C483.397 327.472 482.371 328.983 480.922 329.997C479.473 331.012 477.702 331.46 475.945 331.257C474.188 331.054 472.566 330.214 471.387 328.895Z" fill="#FFB8B8"/>
<path d="M397.472 321.246C398.297 320.594 398.968 319.77 399.439 318.831C399.91 317.893 400.17 316.862 400.199 315.813C400.229 314.763 400.027 313.719 399.61 312.756C399.192 311.792 398.568 310.932 397.782 310.235L403.135 294.716L394.492 289.165L387.241 311.187C386.158 312.585 385.626 314.331 385.745 316.095C385.864 317.859 386.626 319.518 387.887 320.758C389.148 321.998 390.82 322.732 392.587 322.822C394.354 322.912 396.092 322.351 397.472 321.246Z" fill="#FFB8B8"/>
<path d="M442.348 206.918C452.745 206.918 461.173 198.494 461.173 188.102C461.173 177.711 452.745 169.287 442.348 169.287C431.952 169.287 423.524 177.711 423.524 188.102C423.524 198.494 431.952 206.918 442.348 206.918Z" fill="#FFB8B8"/>
<path d="M396.89 309.635C396.568 309.635 396.246 309.589 395.936 309.5L390.449 307.926C389.573 307.673 388.832 307.083 388.389 306.287C387.946 305.49 387.836 304.551 388.083 303.673L399.406 263.713L415.196 224.969C416.767 221.117 420.047 218.591 423.758 218.377C425.452 218.294 427.135 218.704 428.601 219.558C430.067 220.411 431.254 221.671 432.018 223.186C432.868 224.806 433.334 226.6 433.381 228.428C433.429 230.257 433.056 232.072 432.292 233.735L414.344 272.965L400.076 307.503C399.816 308.133 399.374 308.673 398.807 309.052C398.24 309.432 397.573 309.635 396.89 309.635Z" fill="#3F3D56"/>
<path d="M452.971 203.881L442.512 204.067C441.423 204.089 440.343 203.854 439.361 203.382C438.379 202.91 437.522 202.214 436.858 201.35C436.195 200.486 435.744 199.478 435.542 198.408C435.339 197.338 435.391 196.235 435.694 195.189C435.917 194.433 436.085 193.661 436.196 192.881C436.314 192.03 436.337 191.168 436.265 190.312C436.199 189.454 435.843 188.645 435.256 188.016C434.669 187.387 433.886 186.976 433.034 186.851C432.183 186.726 431.315 186.893 430.571 187.326C429.827 187.759 429.253 188.431 428.942 189.233C427.183 189.258 423.437 188.685 421.678 188.71C417.944 179.142 426.081 166.622 434.841 161.919C443.771 157.125 455.363 162.002 458.786 171.994C463.537 172.079 467.397 176.763 468.009 182.034C468.621 187.306 466.451 192.811 463.132 196.852C459.812 200.892 455.454 203.837 452.971 203.881Z" fill="#2F2E41"/>
<path d="M418.59 442.529C417.743 442.524 416.926 442.209 416.296 441.643C415.666 441.077 415.265 440.299 415.171 439.457L411.29 309.045L460.18 312.524L460.217 312.838C471.265 405.274 467.489 437.272 467.449 437.584C467.422 438.057 467.298 438.519 467.084 438.942C466.87 439.365 466.571 439.739 466.206 440.041C465.841 440.343 465.417 440.567 464.962 440.698C464.507 440.829 464.029 440.865 463.559 440.803L452.755 441.062C451.936 440.97 451.177 440.587 450.616 439.983C450.055 439.379 449.729 438.595 449.697 437.771L439.602 343.315C439.54 343.07 439.393 342.854 439.188 342.706C438.982 342.558 438.731 342.488 438.479 342.506C438.219 342.505 437.966 342.595 437.765 342.759C437.564 342.924 437.426 343.153 437.375 343.408L433.475 438.173C433.517 439.053 433.218 439.915 432.642 440.581C432.065 441.247 431.255 441.666 430.378 441.751L418.933 442.512C418.819 442.523 418.705 442.529 418.59 442.529Z" fill="#2F2E41"/>
<path d="M438.877 324.628C438.584 324.628 438.292 324.623 437.999 324.614C423.941 324.191 412.943 313.56 409.907 310.312C409.52 309.898 409.242 309.395 409.098 308.847C408.953 308.299 408.946 307.724 409.078 307.173L417.188 272.881L415.036 243.068C414.699 238.93 415.241 234.768 416.629 230.855C418.017 226.942 420.219 223.368 423.088 220.367C425.48 217.842 428.387 215.86 431.612 214.556C434.836 213.252 438.304 212.656 441.779 212.809C455.464 213.462 466.261 225.688 466.358 240.642C466.51 263.804 465.828 265.395 465.604 265.918C458.774 281.85 462.504 304.214 463.81 310.688C463.927 311.266 463.894 311.864 463.714 312.425C463.535 312.987 463.215 313.493 462.785 313.896C455.274 321.02 447.234 324.627 438.877 324.628Z" fill="#3F3D56"/>
<path d="M474.183 315.911C473.403 315.91 472.646 315.645 472.036 315.159C471.426 314.673 471 313.994 470.826 313.234L462.459 276.802L451.245 235.16C450.766 233.395 450.699 231.543 451.048 229.747C451.397 227.951 452.153 226.259 453.259 224.801C454.263 223.435 455.642 222.389 457.229 221.789C458.816 221.189 460.543 221.062 462.2 221.423C465.825 222.247 468.643 225.28 469.554 229.338L478.717 270.115L483.287 311.438C483.386 312.344 483.121 313.252 482.553 313.965C481.984 314.677 481.156 315.136 480.25 315.241L474.578 315.888C474.447 315.903 474.315 315.911 474.183 315.911Z" fill="#3F3D56"/>
<path d="M23.631 319.84C24.6239 319.159 25.4554 318.27 26.067 317.233C26.6787 316.197 27.0556 315.04 27.1712 313.842C27.2868 312.645 27.1382 311.436 26.7361 310.302C26.3339 309.168 25.6879 308.136 24.8435 307.279L28.0374 236.021L11.7768 237.845L12.7214 307.545C11.3743 309.059 10.6294 311.013 10.6278 313.039C10.6262 315.065 11.3681 317.02 12.7128 318.536C14.0576 320.051 15.9118 321.021 17.9241 321.261C19.9364 321.502 21.9669 320.996 23.631 319.84Z" fill="#FFB8B8"/>
<path d="M53.2943 440.464L62.5492 442.09L71.696 407.185L59.57 404.785L53.2943 440.464Z" fill="#FFB8B8"/>
<path d="M78.8866 453.815L49.8008 448.705L51.7764 437.472L69.6245 440.609C71.1002 440.868 72.5105 441.415 73.7746 442.219C75.0387 443.023 76.132 444.068 76.9921 445.295C77.8522 446.521 78.4621 447.905 78.7872 449.367C79.1123 450.829 79.146 452.34 78.8866 453.815Z" fill="#2F2E41"/>
<path d="M27.8926 445.094H37.2893L41.7593 408.868L27.8911 408.869L27.8926 445.094Z" fill="#FFB8B8"/>
<path d="M55.4115 453.814L25.8797 453.815L25.8791 442.411L44.001 442.41C47.0271 442.41 49.9293 443.612 52.0692 445.75C54.2091 447.889 55.4114 450.789 55.4115 453.814Z" fill="#2F2E41"/>
<path d="M67.8652 435.174C67.7186 435.174 67.572 435.166 67.4264 435.148L56.3666 434.239C55.863 434.179 55.3768 434.018 54.9373 433.766C54.4979 433.513 54.1145 433.173 53.8104 432.768C53.5062 432.362 53.2878 431.899 53.1682 431.407C53.0487 430.914 53.0305 430.403 53.1149 429.903L63.3276 372.692L56.4268 336.324C56.3706 336.028 56.2093 335.763 55.9728 335.577C55.7362 335.391 55.4404 335.297 55.1399 335.312C54.8393 335.327 54.5543 335.45 54.3374 335.658C54.1205 335.867 53.9863 336.147 53.9596 336.446L45.3327 433.452C45.2379 434.425 44.7685 435.324 44.0236 435.958C43.2786 436.592 42.3164 436.912 41.3398 436.851L30.92 436.463C30.0069 436.399 29.1491 436.002 28.5085 435.348C27.8679 434.695 27.4889 433.829 27.4431 432.915L26.7426 316.651L80.7629 309.902L84.5366 368.154L84.5216 368.216L71.4991 432.317C71.3007 433.131 70.8348 433.855 70.176 434.373C69.5171 434.891 68.7035 435.173 67.8652 435.174Z" fill="#2F2E41"/>
<path d="M44.5531 189.844C54.9497 189.844 63.3779 181.42 63.3779 171.029C63.3779 160.637 54.9497 152.213 44.5531 152.213C34.1564 152.213 25.7283 160.637 25.7283 171.029C25.7283 181.42 34.1564 189.844 44.5531 189.844Z" fill="#FFB8B8"/>
<path d="M62.2906 325.149C59.3465 325.166 56.4588 324.34 53.9693 322.769C44.8506 317.073 34.4934 319.337 29.1311 321.194C28.599 321.38 28.0317 321.443 27.4715 321.38C26.9113 321.316 26.3728 321.126 25.8963 320.825C25.4252 320.53 25.0271 320.131 24.7319 319.66C24.4366 319.189 24.2519 318.657 24.1914 318.104L14.4402 231.059C12.8061 216.475 21.5957 202.763 35.3395 198.456C35.8559 198.294 36.3809 198.14 36.9147 197.995C41.1917 196.836 45.6708 196.628 50.0369 197.385C54.403 198.143 58.5501 199.847 62.1861 202.379C65.8899 204.939 68.9873 208.278 71.2606 212.163C73.5338 216.048 74.9275 220.384 75.3436 224.865L83.5527 312.494C83.6086 313.061 83.532 313.634 83.3288 314.166C83.1257 314.699 82.8017 315.177 82.3822 315.564C79.5046 318.224 71.1524 325.148 62.2906 325.149Z" fill="#F0BB39"/>
<path d="M32.5975 249.725L10.5978 247.308C9.97188 247.239 9.36811 247.036 8.82765 246.713C8.2872 246.39 7.82277 245.954 7.46597 245.436C7.10917 244.917 6.86839 244.328 6.76003 243.708C6.65168 243.088 6.67829 242.452 6.83806 241.843L12.4378 220.51C12.8081 217.311 14.4324 214.39 16.9547 212.386C19.4769 210.382 22.6912 209.46 25.8928 209.821C29.0944 210.183 32.022 211.798 34.0336 214.314C36.0453 216.829 36.9769 220.039 36.6242 223.24L37.4555 245.207C37.4791 245.836 37.3668 246.463 37.1262 247.045C36.8857 247.626 36.5225 248.149 36.0615 248.578C35.6005 249.007 35.0524 249.331 34.4547 249.529C33.8569 249.727 33.2235 249.794 32.5975 249.725V249.725Z" fill="#F0BB39"/>
<path d="M83.4647 316.788C84.3682 315.993 85.0864 315.01 85.5687 313.908C86.0509 312.805 86.2855 311.611 86.2559 310.408C86.2262 309.205 85.9331 308.024 85.3971 306.946C84.8611 305.869 84.0954 304.922 83.1538 304.173L77.7327 233.049L61.7993 236.634L71.1522 305.898C69.9974 307.562 69.4936 309.592 69.7362 311.603C69.9789 313.614 70.9511 315.467 72.4688 316.809C73.9865 318.151 75.9441 318.891 77.9707 318.887C79.9973 318.883 81.9521 318.136 83.4647 316.788Z" fill="#FFB8B8"/>
<path d="M55.6907 245.254C55.2295 244.826 54.8662 244.303 54.6257 243.721C54.3852 243.139 54.273 242.513 54.2969 241.884L55.1282 219.916C54.7755 216.716 55.7071 213.505 57.7188 210.99C59.7305 208.474 62.658 206.859 65.8596 206.498C69.0612 206.136 72.2755 207.059 74.7977 209.062C77.32 211.066 78.9443 213.988 79.3146 217.187L84.9143 238.519C85.0741 239.128 85.1007 239.764 84.9924 240.384C84.884 241.004 84.6432 241.593 84.2864 242.112C83.9296 242.631 83.4652 243.066 82.9248 243.389C82.3843 243.712 81.7805 243.915 81.1546 243.984L59.1549 246.402C58.5289 246.471 57.8953 246.404 57.2975 246.206C56.6996 246.008 56.1515 245.683 55.6907 245.254Z" fill="#F0BB39"/>
<path d="M43.4334 190.553C43.0988 190.553 42.7653 190.514 42.4396 190.437L42.344 190.414C25.7929 187.883 22.1352 178.301 21.3323 174.3C20.5013 170.157 21.4476 166.158 23.5858 164.604C22.42 160.925 22.6072 157.663 24.1432 154.904C26.8223 150.093 32.6363 148.466 33.4161 148.267C38.0593 144.844 43.6148 147.129 44.6256 147.593C53.6072 144.271 57.0402 147.036 57.661 147.653C61.6759 148.374 64.1231 149.924 64.9356 152.262C66.4616 156.652 61.6357 162.113 61.4295 162.344L61.3224 162.463L54.133 162.805C53.4508 162.838 52.7831 163.013 52.1731 163.32C51.5632 163.627 51.0246 164.059 50.5923 164.588C50.1601 165.116 49.8438 165.73 49.664 166.388C49.4842 167.047 49.445 167.736 49.5487 168.41C49.7433 169.281 49.9891 170.139 50.2849 170.981C51.5127 174.816 52.4327 178.093 51.2461 179.338C50.9773 179.579 50.646 179.74 50.2902 179.801C49.9343 179.863 49.5683 179.823 49.234 179.687C48.11 179.387 47.3467 179.45 46.9665 179.874C46.3761 180.533 46.5563 182.199 47.4739 184.567C47.7619 185.315 47.8393 186.129 47.698 186.918C47.5567 187.708 47.202 188.444 46.6723 189.046C46.2735 189.516 45.7774 189.895 45.2182 190.155C44.6591 190.415 44.0502 190.551 43.4334 190.553Z" fill="#2F2E41"/>
<path d="M108.069 455H0.766458C0.563182 455 0.368221 454.919 0.224483 454.776C0.0807461 454.632 7.62939e-06 454.437 7.62939e-06 454.234C7.62939e-06 454.031 0.0807461 453.836 0.224483 453.692C0.368221 453.549 0.563182 453.468 0.766458 453.468H108.069C108.273 453.468 108.468 453.549 108.611 453.692C108.755 453.836 108.836 454.031 108.836 454.234C108.836 454.437 108.755 454.632 108.611 454.776C108.468 454.919 108.273 455 108.069 455Z" fill="#CCCCCC"/>
<path d="M482.097 455H374.794C374.591 455 374.396 454.919 374.252 454.776C374.108 454.632 374.028 454.437 374.028 454.234C374.028 454.031 374.108 453.836 374.252 453.692C374.396 453.549 374.591 453.468 374.794 453.468H482.097C482.3 453.468 482.495 453.549 482.639 453.692C482.783 453.836 482.863 454.031 482.863 454.234C482.863 454.437 482.783 454.632 482.639 454.776C482.495 454.919 482.3 455 482.097 455Z" fill="#CCCCCC"/>
<path d="M328.587 324.813H143.106C135.994 324.805 129.175 321.978 124.146 316.951C119.117 311.925 116.288 305.11 116.28 298.001V26.8124C116.288 19.7038 119.117 12.8886 124.146 7.86209C129.175 2.83553 135.994 0.00806774 143.106 0H328.587C335.699 0.00806774 342.518 2.83553 347.547 7.86209C352.576 12.8886 355.405 19.7038 355.413 26.8124V298.001C355.405 305.11 352.576 311.925 347.547 316.951C342.518 321.978 335.699 324.805 328.587 324.813Z" fill="white"/>
<path d="M299.462 215.288H172.231C159.235 215.225 159.181 195.438 172.232 195.37L299.462 195.37C312.45 195.431 312.52 215.22 299.462 215.288Z" fill="#CCCCCC"/>
<path d="M299.462 55.9005H172.231C159.235 55.8379 159.181 36.0505 172.232 35.9827L299.462 35.9827C312.45 36.0435 312.52 55.8324 299.462 55.9005Z" fill="#CCCCCC"/>
<path d="M299.462 252.059H172.231C159.235 251.997 159.181 232.209 172.232 232.142L299.462 232.142C312.45 232.202 312.52 251.991 299.462 252.059Z" fill="#CCCCCC"/>
<path d="M299.462 288.831H172.231C159.235 288.768 159.181 268.981 172.232 268.913L299.462 268.913C312.45 268.974 312.52 288.763 299.462 288.831Z" fill="#CCCCCC"/>
<path d="M297.162 171.469H174.53C171.177 171.465 167.963 170.132 165.592 167.762C163.221 165.393 161.888 162.18 161.884 158.829V90.1891C161.888 86.8379 163.221 83.625 165.592 81.2553C167.963 78.8857 171.177 77.5527 174.53 77.549H297.162C300.515 77.5527 303.73 78.8857 306.101 81.2553C308.471 83.625 309.805 86.8379 309.809 90.1891V158.829C309.805 162.18 308.471 165.393 306.101 167.762C303.73 170.132 300.515 171.465 297.162 171.469Z" fill="#F0BB39"/>
<path d="M328.587 324.813H143.106C135.994 324.805 129.175 321.978 124.146 316.951C119.117 311.925 116.288 305.11 116.28 298.001V26.8124C116.288 19.7038 119.117 12.8886 124.146 7.86209C129.175 2.83553 135.994 0.00806774 143.106 0H328.587C335.699 0.00806774 342.518 2.83553 347.547 7.86209C352.576 12.8886 355.405 19.7038 355.413 26.8124V298.001C355.405 305.11 352.576 311.925 347.547 316.951C342.518 321.978 335.699 324.805 328.587 324.813ZM143.106 4.59642C137.213 4.60308 131.563 6.94583 127.396 11.1107C123.229 15.2756 120.886 20.9224 120.879 26.8124V298.001C120.886 303.891 123.229 309.538 127.396 313.703C131.563 317.868 137.213 320.21 143.106 320.217H328.587C334.48 320.21 340.129 317.868 344.296 313.703C348.463 309.538 350.807 303.891 350.814 298.001V26.8124C350.807 20.9224 348.463 15.2755 344.296 11.1107C340.129 6.9458 334.48 4.60306 328.587 4.59642H143.106Z" fill="#E6E6E6"/>
</g>
<defs>
<clipPath id="clip0">
<rect width="484" height="455" fill="white"/>
</clipPath>
</defs>
</svg>
