<svg width="487" height="427" viewBox="0 0 487 427" fill="none" xmlns="http://www.w3.org/2000/svg">
<path d="M271.541 427C369.044 427 448.086 413.035 448.086 395.807C448.086 378.58 369.044 364.614 271.541 364.614C174.038 364.614 94.9965 378.58 94.9965 395.807C94.9965 413.035 174.038 427 271.541 427Z" fill="#3F3D56"/>
<path d="M154.051 193.841C165.272 177.159 170.145 157.007 167.784 137.039C165.424 117.072 155.987 98.6115 141.185 85.006C126.383 71.4005 107.196 63.5506 87.1033 62.8799C67.0108 62.2093 47.3431 68.7622 31.6671 81.3504C15.991 93.9387 5.34446 111.729 1.6582 131.494C-2.02806 151.26 1.49002 171.692 11.5745 189.086C21.6589 206.48 37.6419 219.683 56.6251 226.302C75.6083 232.921 96.3347 232.517 115.046 225.163C116.259 229.494 118.526 233.455 121.646 236.694C124.765 239.933 128.639 242.348 132.921 243.722C137.202 245.096 141.757 245.387 146.178 244.569C150.6 243.751 154.749 241.849 158.255 239.033C161.762 236.218 164.515 232.576 166.269 228.436C168.023 224.295 168.723 219.784 168.307 215.306C167.89 210.828 166.37 206.524 163.882 202.778C161.394 199.032 158.016 195.962 154.051 193.841Z" fill="#F0BB39"/>
<path d="M134.213 130.096H34.211V137.992H134.213V130.096Z" fill="white"/>
<path d="M134.213 143.256H34.211V151.152H134.213V143.256Z" fill="white"/>
<path d="M134.213 156.416H34.211V164.312H134.213V156.416Z" fill="white"/>
<path d="M332.949 131.299C321.728 114.617 316.855 94.4643 319.216 74.497C321.576 54.5296 331.013 36.0693 345.815 22.4638C360.617 8.85826 379.804 1.00841 399.897 0.337743C419.989 -0.332919 439.657 6.22003 455.333 18.8082C471.009 31.3965 481.656 49.1864 485.342 68.9519C489.028 88.7174 485.51 109.15 475.426 126.544C465.341 143.937 449.358 157.141 430.375 163.76C411.392 170.379 390.665 169.975 371.954 162.621C370.741 166.951 368.474 170.913 365.354 174.152C362.235 177.391 358.361 179.805 354.08 181.18C349.798 182.554 345.243 182.845 340.822 182.027C336.4 181.208 332.251 179.306 328.745 176.491C325.238 173.675 322.485 170.034 320.731 165.893C318.977 161.753 318.277 157.242 318.693 152.764C319.11 148.286 320.63 143.982 323.118 140.236C325.606 136.49 328.984 133.419 332.949 131.299Z" fill="#F0BB39"/>
<path d="M352.787 75.4498L452.789 75.4498V67.5539L352.787 67.5539V75.4498Z" fill="white"/>
<path d="M352.787 88.6097L452.789 88.6097V80.7138L352.787 80.7138V88.6097Z" fill="white"/>
<path d="M352.787 101.77L452.789 101.77V93.8736L352.787 93.8736V101.77Z" fill="white"/>
<path d="M186.967 361.43C180.702 352.117 177.982 340.866 179.3 329.719C180.618 318.571 185.886 308.265 194.15 300.669C202.414 293.073 213.126 288.691 224.343 288.316C235.561 287.942 246.541 291.6 255.292 298.628C264.044 305.656 269.988 315.588 272.046 326.623C274.104 337.658 272.14 349.065 266.51 358.775C260.88 368.486 251.957 375.858 241.359 379.553C230.761 383.248 219.189 383.023 208.743 378.917C208.066 381.335 206.8 383.546 205.058 385.355C203.317 387.163 201.154 388.511 198.764 389.278C196.374 390.045 193.831 390.208 191.362 389.751C188.894 389.294 186.577 388.232 184.62 386.66C182.662 385.089 181.125 383.056 180.146 380.744C179.167 378.432 178.776 375.914 179.008 373.414C179.241 370.914 180.09 368.511 181.479 366.42C182.868 364.328 184.753 362.614 186.967 361.43Z" fill="#F0BB39"/>
<path d="M207.476 339.59C210.476 339.59 212.908 337.158 212.908 334.158C212.908 331.158 210.476 328.726 207.476 328.726C204.477 328.726 202.045 331.158 202.045 334.158C202.045 337.158 204.477 339.59 207.476 339.59Z" fill="white"/>
<path d="M226.007 339.59C229.006 339.59 231.438 337.158 231.438 334.158C231.438 331.158 229.006 328.726 226.007 328.726C223.007 328.726 220.575 331.158 220.575 334.158C220.575 337.158 223.007 339.59 226.007 339.59Z" fill="white"/>
<path d="M244.537 339.59C247.537 339.59 249.969 337.158 249.969 334.158C249.969 331.158 247.537 328.726 244.537 328.726C241.538 328.726 239.106 331.158 239.106 334.158C239.106 337.158 241.538 339.59 244.537 339.59Z" fill="white"/>
<path d="M231.446 165.641C231.446 165.641 255.679 166.3 259.682 167.756C263.684 169.213 265.474 179.626 265.474 179.626L246.658 185.541L232.585 184.744L221.993 185.492L227.907 170.002L231.446 165.641Z" fill="#2F2E41"/>
<path d="M232.491 157.688C232.491 157.688 234.086 163.847 230.547 168.208C227.008 172.569 245.759 188.108 245.759 188.108L255.651 186.408C255.651 186.408 253.471 167.484 256.399 162.692C259.328 157.9 232.491 157.688 232.491 157.688Z" fill="#9F616A"/>
<path opacity="0.1" d="M232.491 157.688C232.491 157.688 234.086 163.847 230.547 168.208C227.008 172.569 245.759 188.108 245.759 188.108L255.651 186.408C255.651 186.408 253.471 167.484 256.399 162.692C259.328 157.9 232.491 157.688 232.491 157.688Z" fill="black"/>
<path d="M298.277 337.759L276.452 366.706L291.347 375.404L311.847 341.859L298.277 337.759Z" fill="#9F616A"/>
<path d="M282.968 367.194C282.968 367.194 274.931 357.855 275.289 359.937C275.647 362.02 269.57 379.683 275.224 381.392C280.877 383.1 329.361 387.632 330.028 382.156C330.695 376.681 315.564 372.849 315.564 372.849C315.564 372.849 306.575 364.209 304.582 365.087C302.589 365.966 282.968 367.194 282.968 367.194Z" fill="#2F2E41"/>
<path d="M293.381 365.405L310.814 395.108L323.975 387.485L306.396 363.167L293.381 365.405Z" fill="#9F616A"/>
<path d="M320.9 294.736L315.726 302.059C315.726 302.059 291.062 336.319 293.681 339.085C296.301 341.851 307.209 352.306 312.757 350.28C318.305 348.254 338.016 313.237 338.016 313.237L332.875 292.678L320.9 294.736Z" fill="#2F2E41"/>
<path d="M214.652 287.805C214.652 287.805 220.176 298.113 234.175 301.603C248.175 305.094 262.802 312.229 263.322 312.139C263.843 312.05 265.315 311.261 265.673 313.343C266.031 315.426 269.871 319.055 269.871 319.055C269.871 319.055 285.335 371.612 291.241 371.669C297.147 371.726 309.284 367.495 309.536 365.844C309.788 364.192 291.452 310.52 291.273 309.479L289.126 296.982C289.126 296.982 313.376 300.855 315.637 301.538C317.898 302.221 338.016 313.237 338.016 313.237C338.016 313.237 358.523 298.454 339.342 283.525C320.16 268.596 287.19 257.645 287.19 257.645L275.362 254.318L265.053 253.702L263.535 247.881L239.121 249.29L213.643 260.102L214.652 287.805Z" fill="#2F2E41"/>
<path d="M246.873 169.947C257.376 169.947 265.891 161.432 265.891 150.927C265.891 140.423 257.376 131.907 246.873 131.907C236.37 131.907 227.856 140.423 227.856 150.927C227.856 161.432 236.37 169.947 246.873 169.947Z" fill="#9F616A"/>
<path d="M229.668 166.215L231.956 165.821C231.956 165.821 236.087 181.73 248.866 184.357C248.866 184.357 255.172 176.802 254.903 175.527C254.634 174.253 259.897 167.451 262.696 171.259C265.494 175.066 262.012 242.138 264.363 243.342C266.714 244.546 271.758 245.824 267.699 250.274C263.639 254.724 247.516 260.712 243.945 258.646C240.374 256.579 233.077 239.071 229.921 233.181C226.764 227.29 221.713 207.252 221.713 207.252C221.713 207.252 215.262 185.309 219.232 180.338C223.201 175.367 229.668 166.215 229.668 166.215Z" fill="#D0CDE1"/>
<path d="M247.869 248.787C247.444 253.459 246.716 258.099 245.691 262.677C244.758 266.402 243.672 268.651 242.433 268.555C239.271 268.318 237.833 272.957 237.092 278.304C236.3 283.978 236.3 290.45 235.866 292.737C235.291 295.759 231.611 298.066 224.258 297.388C219.879 296.89 215.582 295.836 211.469 294.251C201.542 290.642 201.836 261.367 203.497 239.644C204.513 226.33 206.039 215.845 206.039 215.845C206.039 215.845 203.024 206.85 202.06 200.684C201.868 199.559 201.771 198.42 201.772 197.279C201.919 191.893 211.75 177.339 217.691 168.273C223.639 159.207 231.752 165.858 231.752 165.858L228.928 174.381C228.928 174.381 233.304 181.134 233.336 187.561C233.368 193.989 243.813 198.627 247.562 201.738C249.92 203.693 249.862 229.793 247.869 248.787Z" fill="#2F2E41"/>
<path d="M256.127 168.903C256.127 168.903 256.812 169.714 259.95 169.318C263.713 168.844 268.888 170.147 270.09 173.74C272.295 180.33 278.51 207.138 278.51 207.138C278.51 207.138 281.097 237.786 282.26 244.555C283.423 251.324 282.846 257.32 283.993 260.875C285.14 264.43 272.669 254.244 268.073 255.571C263.477 256.897 260.524 239.714 261.101 233.718C261.679 227.722 262.167 221.205 260.572 215.046C258.978 208.887 261.805 192.587 261.699 188.852C261.593 185.118 251.565 175.706 256.127 168.903Z" fill="#2F2E41"/>
<path d="M269.583 264.156C269.583 264.156 289.718 275.143 291.646 290.78C293.573 306.418 264.713 275.639 264.713 275.639L269.583 264.156Z" fill="#9F616A"/>
<path d="M281.077 253.067C281.077 253.067 287.247 284.171 296.859 282.519C306.47 280.867 291.49 251.277 291.49 251.277L281.077 253.067Z" fill="#9F616A"/>
<path d="M313.994 388.665C313.994 388.665 309.072 394.336 307.852 393.473C306.632 392.611 303.826 404.351 306.356 406.596C308.885 408.842 318.631 412.527 318.737 416.262C318.842 419.996 344.979 419.256 345.915 415.342C346.85 411.429 342.637 402.504 339.676 400.869C336.714 399.233 325.766 384.182 325.766 384.182C325.766 384.182 317.191 385.435 313.994 388.665Z" fill="#2F2E41"/>
<path opacity="0.1" d="M266.375 283.179C261.706 279.882 248.668 279.065 237.092 278.304C232.014 277.978 227.216 277.659 223.53 277.142C219.978 276.65 216.784 273.404 213.948 268.567C209.649 261.239 206.174 250.25 203.497 239.644C204.513 226.33 206.039 215.845 206.039 215.845C206.039 215.845 203.024 206.85 202.06 200.684C202.74 199.738 203.615 198.949 204.628 198.371C216.906 193.1 228.628 244.973 230.116 253.112C230.142 253.247 230.161 253.374 230.18 253.483C230.902 257.674 238.702 261.258 245.691 262.677C249.996 263.552 254.002 263.61 255.848 262.472C260.696 259.495 275.606 271.41 276.737 271.749C277.868 272.094 273.083 287.926 266.375 283.179Z" fill="black"/>
<path d="M204.63 195.178C204.63 195.178 195.706 199.393 199.627 219.09C203.548 238.786 211.447 272.274 223.527 273.95C235.607 275.626 259.662 275.243 266.373 279.986C273.084 284.729 277.867 268.897 276.736 268.555C275.606 268.214 260.695 256.303 255.846 259.281C250.998 262.258 231.344 257.059 230.181 250.29C229.018 243.521 217.108 189.817 204.63 195.178Z" fill="#2F2E41"/>
<path d="M268.935 185.732L278.743 208.493C278.743 208.493 279.73 208 280.877 211.556C282.024 215.111 282.561 218.235 284.57 220.57C286.579 222.905 295.52 256.213 295.788 257.775C296.056 259.337 283.44 264.723 280.621 260.382C277.802 256.042 268.935 185.732 268.935 185.732Z" fill="#2F2E41"/>
<path d="M236.054 150.663C236.783 150.468 236.89 149.5 236.914 148.746C237.045 144.708 239.476 140.564 243.341 139.389C244.824 138.982 246.377 138.897 247.896 139.138C250.063 139.427 252.157 140.125 254.064 141.196C255.07 141.762 256.058 142.444 257.199 142.617C257.953 142.731 261.218 143.68 261.969 143.814C263.62 144.108 265.154 145.585 266.739 145.035C268.254 144.509 268.59 142.547 268.626 140.943C268.71 137.289 265.936 132.231 263.493 129.513C261.639 127.45 258.847 126.497 256.119 126.002C252.931 125.49 249.701 125.293 246.474 125.416C242.107 125.493 237.619 125.831 233.681 127.72C229.744 129.61 226.436 133.371 226.247 137.736C226.208 138.645 226.302 139.558 226.225 140.464C226.039 142.676 224.864 144.674 224.313 146.825C223.919 148.403 223.861 150.045 224.14 151.647C224.42 153.249 225.033 154.775 225.938 156.126C227.4 158.277 229.697 160.222 229.612 162.821L232.781 159.538C233.254 159.176 233.59 158.664 233.73 158.085C233.871 157.506 233.809 156.897 233.555 156.358L232.433 151.982C232.145 151.201 232.111 150.349 232.336 149.547C233.539 146.576 234.839 150.987 236.054 150.663Z" fill="#2F2E41"/>
<path d="M380.07 369.492C379.938 369.277 376.842 364.106 375.768 353.368C374.784 343.516 375.417 326.91 384.028 303.746C400.34 259.864 380.268 224.458 380.063 224.105L381.053 223.53C381.105 223.62 386.285 232.647 389.344 247.022C393.387 266.079 391.915 285.895 385.101 304.145C368.816 347.953 380.923 368.691 381.047 368.895L380.07 369.492Z" fill="#3F3D56"/>
<path d="M373.691 221.528C377.8 221.528 381.13 218.197 381.13 214.088C381.13 209.979 377.8 206.647 373.691 206.647C369.582 206.647 366.251 209.979 366.251 214.088C366.251 218.197 369.582 221.528 373.691 221.528Z" fill="#F0BB39"/>
<path d="M397.154 249.001C401.263 249.001 404.593 245.67 404.593 241.56C404.593 237.451 401.263 234.12 397.154 234.12C393.045 234.12 389.714 237.451 389.714 241.56C389.714 245.67 393.045 249.001 397.154 249.001Z" fill="#3F3D56"/>
<path d="M381.13 267.316C385.239 267.316 388.57 263.985 388.57 259.875C388.57 255.766 385.239 252.435 381.13 252.435C377.022 252.435 373.691 255.766 373.691 259.875C373.691 263.985 377.022 267.316 381.13 267.316Z" fill="#F0BB39"/>
<path d="M400.588 282.769C404.696 282.769 408.027 279.438 408.027 275.329C408.027 271.219 404.696 267.888 400.588 267.888C396.479 267.888 393.148 271.219 393.148 275.329C393.148 279.438 396.479 282.769 400.588 282.769Z" fill="#F0BB39"/>
<path d="M375.408 306.808C379.516 306.808 382.847 303.476 382.847 299.367C382.847 295.258 379.516 291.927 375.408 291.927C371.299 291.927 367.968 295.258 367.968 299.367C367.968 303.476 371.299 306.808 375.408 306.808Z" fill="#3F3D56"/>
<path d="M384.564 369.766C384.564 369.766 377.125 351.451 399.443 337.714L384.564 369.766Z" fill="#3F3D56"/>
<path d="M375.415 369.433C375.415 369.433 372.029 349.957 345.824 350.124L375.415 369.433Z" fill="#3F3D56"/>
</svg>
